<mxfile host="app.diagrams.net" modified="2024-03-24T18:41:37.892Z" agent="Mozilla/5.0 (Windows NT 10.0; Win64; x64) AppleWebKit/537.36 (KHTML, like Gecko) Chrome/123.0.0.0 Safari/537.36" version="21.8.0" etag="_t4Buj38TY-voKBFC7CJ" type="github">
  <diagram name="Page-1" id="dQT4w707fsJr_ondnEbg">
    <mxGraphModel>
      <root>
        <mxCell id="0" />
        <mxCell id="1" parent="0" />
      </root>
    </mxGraphModel>
  </diagram>
</mxfile>
